# xmcd
#
# Track frame offsets:
#	150
#	36398
#	80501
#	95347
#	134236
#	185731
#	202366
#	237942
#	264947
#
# Disc length: 4020 seconds
#
# Revision: 1
# Processed by: cddbd v1.5.2PL0 Copyright (c) Steve Scherf et al.
# Submitted via: audiograbber 1.83.01
#
DISCID=880fb209
DTITLE=Grateful Dead - 79-12-10 Soldiers and Sailors Memorial Hall, Kansas City K
DTITLE=S
DYEAR=1900
DGENRE=
TTITLE0=Jack Straw
TTITLE1=Loser
TTITLE2=Me and My Uncle
TTITLE3=Big River
TTITLE4=Althea
TTITLE5=Easy To Love You
TTITLE6=Minglewood Blues
TTITLE7=China Cat Sunflower
TTITLE8=I Know You Rider
EXTD=
EXTT0=
EXTT1=
EXTT2=
EXTT3=
EXTT4=
EXTT5=
EXTT6=
EXTT7=
EXTT8=
PLAYORDER=
